<?xml version="1.0" standalone="no"?><!DOCTYPE svg PUBLIC "-//W3C//DTD SVG 1.1//EN" "http://www.w3.org/Graphics/SVG/1.1/DTD/svg11.dtd"><svg width="900" height="171.25" version="1.1" xmlns="http://www.w3.org/2000/svg" xmlns:xlink="http://www.w3.org/1999/xlink"><defs xmlns="http://www.w3.org/1999/xhtml"><style type="text/css"><![CDATA[
svg { overflow: hidden; }
text { font-weight: 300; font-family: "Helvetica Neue", Helvetica, Arial, sans-serf; font-size: 14px; }
.node rect { stroke: rgb(153, 153, 153); fill: rgb(255, 255, 255); stroke-width: 1.5px; }
.edgePath path { stroke: rgb(51, 51, 51); stroke-width: 1.5px; }]]></style></defs><g transform="translate(74.375, 20)"><g class="output"><g class="clusters"/><g class="edgePaths"><g class="edgePath"><path class="path" d="M514.328125,61.5L609.3203125,61.5L704.3125,61.5" marker-end="url(#arrowhead22)" style="fill: none;"/><defs><marker id="arrowhead22" viewBox="0 0 10 10" refX="9" refY="5" markerUnits="strokeWidth" markerWidth="8" markerHeight="6" orient="auto"><path d="M 0 0 L 10 5 L 0 10 z" style="stroke-width: 1; stroke-dasharray: 1, 0;"/></marker></defs></g><g class="edgePath"><path class="path" d="M271.90625,61.5L366.8984375,61.5L461.890625,61.5" marker-end="url(#arrowhead23)" style="fill: none;"/><defs><marker id="arrowhead23" viewBox="0 0 10 10" refX="9" refY="5" markerUnits="strokeWidth" markerWidth="8" markerHeight="6" orient="auto"><path d="M 0 0 L 10 5 L 0 10 z" style="stroke-width: 1; stroke-dasharray: 1, 0;"/></marker></defs></g><g class="edgePath"><path class="path" d="M68.75,18.25L143.1953125,18.25L217.640625,49.94737348100293" marker-end="url(#arrowhead24)" style="fill: none;"/><defs><marker id="arrowhead24" viewBox="0 0 10 10" refX="9" refY="5" markerUnits="strokeWidth" markerWidth="8" markerHeight="6" orient="auto"><path d="M 0 0 L 10 5 L 0 10 z" style="stroke-width: 1; stroke-dasharray: 1, 0;"/></marker></defs></g><g class="edgePath"><path class="path" d="M65.7734375,104.75L143.1953125,104.75L217.640625,73.05262651899707" marker-end="url(#arrowhead25)" style="fill: none;"/><defs><marker id="arrowhead25" viewBox="0 0 10 10" refX="9" refY="5" markerUnits="strokeWidth" markerWidth="8" markerHeight="6" orient="auto"><path d="M 0 0 L 10 5 L 0 10 z" style="stroke-width: 1; stroke-dasharray: 1, 0;"/></marker></defs></g></g><g class="edgeLabels"><g class="edgeLabel" transform="translate(609.3203125,79.75)"><g transform="translate(-69.9921875,-8.25)" class="label"><text><tspan xml:space="preserve" dy="1em" x="1">is a specialized library of</tspan></text></g></g><g class="edgeLabel" transform="translate(366.8984375,79.75)"><g transform="translate(-69.9921875,-8.25)" class="label"><text><tspan xml:space="preserve" dy="1em" x="1">is a specialized library of</tspan></text></g></g><g class="edgeLabel" transform="translate(143.1953125,36.5)"><g transform="translate(-49.4453125,-8.25)" class="label"><text><tspan xml:space="preserve" dy="1em" x="1">is interpreted into</tspan></text></g></g><g class="edgeLabel" transform="translate(143.1953125,123)"><g transform="translate(-49.4453125,-8.25)" class="label"><text><tspan xml:space="preserve" dy="1em" x="1">is interpreted into</tspan></text></g></g></g><g class="nodes"><g class="node" transform="translate(727.78125,61.5)"><rect rx="5" ry="5" x="-23.46875" y="-18.25" width="46.9375" height="36.5"/><g class="label" transform="translate(0,0)"><g transform="translate(-13.46875,-8.25)"><text><tspan xml:space="preserve" dy="1em" x="1">Java</tspan></text></g></g></g><g class="node" transform="translate(488.109375,61.5)"><rect rx="5" ry="5" x="-26.21875" y="-18.25" width="52.4375" height="36.5"/><g class="label" transform="translate(0,0)"><g transform="translate(-16.21875,-8.25)"><text><tspan xml:space="preserve" dy="1em" x="1">Scala</tspan></text></g></g></g><g class="node" transform="translate(244.7734375,61.5)"><rect rx="5" ry="5" x="-27.1328125" y="-18.25" width="54.265625" height="36.5"/><g class="label" transform="translate(0,0)"><g transform="translate(-17.1328125,-8.25)"><text><tspan xml:space="preserve" dy="1em" x="1">Spark</tspan></text></g></g></g><g class="node" transform="translate(34.375,18.25)"><rect rx="5" ry="5" x="-34.375" y="-18.25" width="68.75" height="36.5"/><g class="label" transform="translate(0,0)"><g transform="translate(-24.375,-8.25)"><text><tspan xml:space="preserve" dy="1em" x="1">PySpark</tspan></text></g></g></g><g class="node" transform="translate(34.375,104.75)"><rect rx="5" ry="5" x="-31.3984375" y="-18.25" width="62.796875" height="36.5"/><g class="label" transform="translate(0,0)"><g transform="translate(-21.3984375,-8.25)"><text><tspan xml:space="preserve" dy="1em" x="1">SparkR</tspan></text></g></g></g></g></g></g></svg>