<?xml version="1.0" standalone="no"?><!DOCTYPE svg PUBLIC "-//W3C//DTD SVG 1.1//EN" "http://www.w3.org/Graphics/SVG/1.1/DTD/svg11.dtd"><svg width="1120" height="417.5" version="1.1" xmlns="http://www.w3.org/2000/svg" xmlns:xlink="http://www.w3.org/1999/xlink"><defs xmlns="http://www.w3.org/1999/xhtml"><style type="text/css"><![CDATA[
svg { overflow: hidden; }
text { font-weight: 300; font-family: "Helvetica Neue", Helvetica, Arial, sans-serf; font-size: 14px; }
.node rect { stroke: rgb(153, 153, 153); fill: rgb(255, 255, 255); stroke-width: 1.5px; }
.edgePath path { stroke: rgb(51, 51, 51); stroke-width: 1.5px; }]]></style></defs><g transform="translate(30.84375, 20)"><g class="output"><g class="clusters"/><g class="edgePaths"><g class="edgePath"><path class="path" d="M115.890625,166.5L163.203125,166.5L210.515625,166.5" marker-end="url(#arrowhead48)" style="fill: none;"/><defs><marker id="arrowhead48" viewBox="0 0 10 10" refX="9" refY="5" markerUnits="strokeWidth" markerWidth="8" markerHeight="6" orient="auto"><path d="M 0 0 L 10 5 L 0 10 z" style="stroke-width: 1; stroke-dasharray: 1, 0;"/></marker></defs></g><g class="edgePath"><path class="path" d="M87.6920855978261,199L163.203125,281.5L224.0859375,281.5" marker-end="url(#arrowhead49)" style="fill: none;"/><defs><marker id="arrowhead49" viewBox="0 0 10 10" refX="9" refY="5" markerUnits="strokeWidth" markerWidth="8" markerHeight="6" orient="auto"><path d="M 0 0 L 10 5 L 0 10 z" style="stroke-width: 1; stroke-dasharray: 1, 0;"/></marker></defs></g><g class="edgePath"><path class="path" d="M82.20686502659575,134L163.203125,25.5L235.9375,25.5" marker-end="url(#arrowhead50)" style="fill: none;"/><defs><marker id="arrowhead50" viewBox="0 0 10 10" refX="9" refY="5" markerUnits="strokeWidth" markerWidth="8" markerHeight="6" orient="auto"><path d="M 0 0 L 10 5 L 0 10 z" style="stroke-width: 1; stroke-dasharray: 1, 0;"/></marker></defs></g><g class="edgePath"><path class="path" d="M326.40625,166.5L375.0390625,166.5L423.671875,166.5" marker-end="url(#arrowhead51)" style="fill: none;"/><defs><marker id="arrowhead51" viewBox="0 0 10 10" refX="9" refY="5" markerUnits="strokeWidth" markerWidth="8" markerHeight="6" orient="auto"><path d="M 0 0 L 10 5 L 0 10 z" style="stroke-width: 1; stroke-dasharray: 1, 0;"/></marker></defs></g><g class="edgePath"><path class="path" d="M312.8359375,281.5L375.0390625,281.5L429.2109375,281.5" marker-end="url(#arrowhead52)" style="fill: none;"/><defs><marker id="arrowhead52" viewBox="0 0 10 10" refX="9" refY="5" markerUnits="strokeWidth" markerWidth="8" markerHeight="6" orient="auto"><path d="M 0 0 L 10 5 L 0 10 z" style="stroke-width: 1; stroke-dasharray: 1, 0;"/></marker></defs></g><g class="edgePath"><path class="path" d="M300.984375,25.5L375.0390625,25.5L423.671875,25.5" marker-end="url(#arrowhead53)" style="fill: none;"/><defs><marker id="arrowhead53" viewBox="0 0 10 10" refX="9" refY="5" markerUnits="strokeWidth" markerWidth="8" markerHeight="6" orient="auto"><path d="M 0 0 L 10 5 L 0 10 z" style="stroke-width: 1; stroke-dasharray: 1, 0;"/></marker></defs></g><g class="edgePath"><path class="path" d="M481.25669642857144,134L547.71875,9L591.15625,17.55863420095158" marker-end="url(#arrowhead54)" style="fill: none;"/><defs><marker id="arrowhead54" viewBox="0 0 10 10" refX="9" refY="5" markerUnits="strokeWidth" markerWidth="8" markerHeight="6" orient="auto"><path d="M 0 0 L 10 5 L 0 10 z" style="stroke-width: 1; stroke-dasharray: 1, 0;"/></marker></defs></g><g class="edgePath"><path class="path" d="M480.4214029456193,199L547.71875,332L596.6953125,343.6969866592033" marker-end="url(#arrowhead55)" style="fill: none;"/><defs><marker id="arrowhead55" viewBox="0 0 10 10" refX="9" refY="5" markerUnits="strokeWidth" markerWidth="8" markerHeight="6" orient="auto"><path d="M 0 0 L 10 5 L 0 10 z" style="stroke-width: 1; stroke-dasharray: 1, 0;"/></marker></defs></g><g class="edgePath"><path class="path" d="M504.28125,174.68201324750444L547.71875,183.5L609.140625,220.5399290978636" marker-end="url(#arrowhead56)" style="fill: none;"/><defs><marker id="arrowhead56" viewBox="0 0 10 10" refX="9" refY="5" markerUnits="strokeWidth" markerWidth="8" markerHeight="6" orient="auto"><path d="M 0 0 L 10 5 L 0 10 z" style="stroke-width: 1; stroke-dasharray: 1, 0;"/></marker></defs></g><g class="edgePath"><path class="path" d="M498.7421875,310.76812202630845L547.71875,352L596.6953125,352" marker-end="url(#arrowhead57)" style="fill: none;"/><defs><marker id="arrowhead57" viewBox="0 0 10 10" refX="9" refY="5" markerUnits="strokeWidth" markerWidth="8" markerHeight="6" orient="auto"><path d="M 0 0 L 10 5 L 0 10 z" style="stroke-width: 1; stroke-dasharray: 1, 0;"/></marker></defs></g><g class="edgePath"><path class="path" d="M498.7421875,281.5L547.71875,281.5L609.140625,246.66046272973225" marker-end="url(#arrowhead58)" style="fill: none;"/><defs><marker id="arrowhead58" viewBox="0 0 10 10" refX="9" refY="5" markerUnits="strokeWidth" markerWidth="8" markerHeight="6" orient="auto"><path d="M 0 0 L 10 5 L 0 10 z" style="stroke-width: 1; stroke-dasharray: 1, 0;"/></marker></defs></g><g class="edgePath"><path class="path" d="M480.7766927083333,249L547.71875,119.5L604.7265625,119.5" marker-end="url(#arrowhead59)" style="fill: none;"/><defs><marker id="arrowhead59" viewBox="0 0 10 10" refX="9" refY="5" markerUnits="strokeWidth" markerWidth="8" markerHeight="6" orient="auto"><path d="M 0 0 L 10 5 L 0 10 z" style="stroke-width: 1; stroke-dasharray: 1, 0;"/></marker></defs></g><g class="edgePath"><path class="path" d="M504.28125,27.18453213919209L547.71875,29L591.15625,27.18453213919209" marker-end="url(#arrowhead60)" style="fill: none;"/><defs><marker id="arrowhead60" viewBox="0 0 10 10" refX="9" refY="5" markerUnits="strokeWidth" markerWidth="8" markerHeight="6" orient="auto"><path d="M 0 0 L 10 5 L 0 10 z" style="stroke-width: 1; stroke-dasharray: 1, 0;"/></marker></defs></g><g class="edgePath"><path class="path" d="M671.765625,25.5L738.0625,25.5L804.359375,25.5" marker-end="url(#arrowhead61)" style="fill: none;"/><defs><marker id="arrowhead61" viewBox="0 0 10 10" refX="9" refY="5" markerUnits="strokeWidth" markerWidth="8" markerHeight="6" orient="auto"><path d="M 0 0 L 10 5 L 0 10 z" style="stroke-width: 1; stroke-dasharray: 1, 0;"/></marker></defs></g><g class="edgePath"><path class="path" d="M658.1953125,119.5L738.0625,119.5L817.9296875,119.5" marker-end="url(#arrowhead62)" style="fill: none;"/><defs><marker id="arrowhead62" viewBox="0 0 10 10" refX="9" refY="5" markerUnits="strokeWidth" markerWidth="8" markerHeight="6" orient="auto"><path d="M 0 0 L 10 5 L 0 10 z" style="stroke-width: 1; stroke-dasharray: 1, 0;"/></marker></defs></g><g class="edgePath"><path class="path" d="M653.78125,234L738.0625,234L822.34375,234" marker-end="url(#arrowhead63)" style="fill: none;"/><defs><marker id="arrowhead63" viewBox="0 0 10 10" refX="9" refY="5" markerUnits="strokeWidth" markerWidth="8" markerHeight="6" orient="auto"><path d="M 0 0 L 10 5 L 0 10 z" style="stroke-width: 1; stroke-dasharray: 1, 0;"/></marker></defs></g><g class="edgePath"><path class="path" d="M666.2265625,352L738.0625,352L809.8984375,352" marker-end="url(#arrowhead64)" style="fill: none;"/><defs><marker id="arrowhead64" viewBox="0 0 10 10" refX="9" refY="5" markerUnits="strokeWidth" markerWidth="8" markerHeight="6" orient="auto"><path d="M 0 0 L 10 5 L 0 10 z" style="stroke-width: 1; stroke-dasharray: 1, 0;"/></marker></defs></g><g class="edgePath"><path class="path" d="M884.96875,25.5L931.3359375,25.5L1000.4961037404092,181.5" marker-end="url(#arrowhead65)" style="fill: none;"/><defs><marker id="arrowhead65" viewBox="0 0 10 10" refX="9" refY="5" markerUnits="strokeWidth" markerWidth="8" markerHeight="6" orient="auto"><path d="M 0 0 L 10 5 L 0 10 z" style="stroke-width: 1; stroke-dasharray: 1, 0;"/></marker></defs></g><g class="edgePath"><path class="path" d="M871.3984375,119.5L931.3359375,119.5L984.2783636083744,181.5" marker-end="url(#arrowhead66)" style="fill: none;"/><defs><marker id="arrowhead66" viewBox="0 0 10 10" refX="9" refY="5" markerUnits="strokeWidth" markerWidth="8" markerHeight="6" orient="auto"><path d="M 0 0 L 10 5 L 0 10 z" style="stroke-width: 1; stroke-dasharray: 1, 0;"/></marker></defs></g><g class="edgePath"><path class="path" d="M866.984375,234L931.3359375,234L977.703125,227.04533982332794" marker-end="url(#arrowhead67)" style="fill: none;"/><defs><marker id="arrowhead67" viewBox="0 0 10 10" refX="9" refY="5" markerUnits="strokeWidth" markerWidth="8" markerHeight="6" orient="auto"><path d="M 0 0 L 10 5 L 0 10 z" style="stroke-width: 1; stroke-dasharray: 1, 0;"/></marker></defs></g><g class="edgePath"><path class="path" d="M879.4296875,352L931.3359375,352L991.8739265267176,260.5" marker-end="url(#arrowhead68)" style="fill: none;"/><defs><marker id="arrowhead68" viewBox="0 0 10 10" refX="9" refY="5" markerUnits="strokeWidth" markerWidth="8" markerHeight="6" orient="auto"><path d="M 0 0 L 10 5 L 0 10 z" style="stroke-width: 1; stroke-dasharray: 1, 0;"/></marker></defs></g></g><g class="edgeLabels"><g class="edgeLabel" transform="translate(163.203125,185)"><g transform="translate(-22.3125,-8.5)" class="label"><text><tspan xml:space="preserve" dy="1em" x="1">`textFile`</tspan></text></g></g><g class="edgeLabel"><g transform="translate(0,0)" class="label"><text><tspan xml:space="preserve" dy="1em" x="1"/></text></g></g><g class="edgeLabel"><g transform="translate(0,0)" class="label"><text><tspan xml:space="preserve" dy="1em" x="1"/></text></g></g><g class="edgeLabel" transform="translate(375.0390625,185)"><g transform="translate(-23.6328125,-8.5)" class="label"><text><tspan xml:space="preserve" dy="1em" x="1">`flatMap`</tspan></text></g></g><g class="edgeLabel"><g transform="translate(0,0)" class="label"><text><tspan xml:space="preserve" dy="1em" x="1"/></text></g></g><g class="edgeLabel"><g transform="translate(0,0)" class="label"><text><tspan xml:space="preserve" dy="1em" x="1"/></text></g></g><g class="edgeLabel"><g transform="translate(0,0)" class="label"><text><tspan xml:space="preserve" dy="1em" x="1"/></text></g></g><g class="edgeLabel"><g transform="translate(0,0)" class="label"><text><tspan xml:space="preserve" dy="1em" x="1"/></text></g></g><g class="edgeLabel" transform="translate(547.71875,202)"><g transform="translate(-18.4375,-8.5)" class="label"><text><tspan xml:space="preserve" dy="1em" x="1">shuffle</tspan></text></g></g><g class="edgeLabel"><g transform="translate(0,0)" class="label"><text><tspan xml:space="preserve" dy="1em" x="1"/></text></g></g><g class="edgeLabel"><g transform="translate(0,0)" class="label"><text><tspan xml:space="preserve" dy="1em" x="1"/></text></g></g><g class="edgeLabel"><g transform="translate(0,0)" class="label"><text><tspan xml:space="preserve" dy="1em" x="1"/></text></g></g><g class="edgeLabel"><g transform="translate(0,0)" class="label"><text><tspan xml:space="preserve" dy="1em" x="1"/></text></g></g><g class="edgeLabel"><g transform="translate(0,0)" class="label"><text><tspan xml:space="preserve" dy="1em" x="1"/></text></g></g><g class="edgeLabel"><g transform="translate(0,0)" class="label"><text><tspan xml:space="preserve" dy="1em" x="1"/></text></g></g><g class="edgeLabel" transform="translate(738.0625,252.5)"><g transform="translate(-41.296875,-8.5)" class="label"><text><tspan xml:space="preserve" dy="1em" x="1">`reduceByKey`</tspan></text></g></g><g class="edgeLabel"><g transform="translate(0,0)" class="label"><text><tspan xml:space="preserve" dy="1em" x="1"/></text></g></g><g class="edgeLabel"><g transform="translate(0,0)" class="label"><text><tspan xml:space="preserve" dy="1em" x="1"/></text></g></g><g class="edgeLabel"><g transform="translate(0,0)" class="label"><text><tspan xml:space="preserve" dy="1em" x="1"/></text></g></g><g class="edgeLabel" transform="translate(931.3359375,252.5)"><g transform="translate(-21.3671875,-8.5)" class="label"><text><tspan xml:space="preserve" dy="1em" x="1">`collect`</tspan></text></g></g><g class="edgeLabel"><g transform="translate(0,0)" class="label"><text><tspan xml:space="preserve" dy="1em" x="1"/></text></g></g></g><g class="nodes"><g class="node type-TOP" transform="translate(57.9453125,166.5)"><rect rx="5" ry="5" x="-57.9453125" y="-32.5" width="115.890625" height="65"/><g class="label" transform="translate(0,0)"><g transform="translate(-47.9453125,-22.5)"><text><tspan xml:space="preserve" dy="1em" x="1">Apache Spark is</tspan><tspan xml:space="preserve" dy="1em" x="1">Spark is fun</tspan><tspan xml:space="preserve" dy="1em" x="1">Apache</tspan></text></g></g></g><g class="node type-S" transform="translate(268.4609375,166.5)"><rect rx="5" ry="5" x="-57.9453125" y="-18.5" width="115.890625" height="37"/><g class="label" transform="translate(0,0)"><g transform="translate(-47.9453125,-8.5)"><text><tspan xml:space="preserve" dy="1em" x="1">Apache Spark is</tspan></text></g></g></g><g class="node type-S" transform="translate(268.4609375,281.5)"><rect rx="5" ry="5" x="-44.375" y="-18.5" width="88.75" height="37"/><g class="label" transform="translate(0,0)"><g transform="translate(-34.375,-8.5)"><text><tspan xml:space="preserve" dy="1em" x="1">Spark is fun</tspan></text></g></g></g><g class="node type-S" transform="translate(268.4609375,25.5)"><rect rx="5" ry="5" x="-32.5234375" y="-18.5" width="65.046875" height="37"/><g class="label" transform="translate(0,0)"><g transform="translate(-22.5234375,-8.5)"><text><tspan xml:space="preserve" dy="1em" x="1">Apache</tspan></text></g></g></g><g class="node type-S" transform="translate(463.9765625,166.5)"><rect rx="5" ry="5" x="-40.3046875" y="-32.5" width="80.609375" height="65"/><g class="label" transform="translate(0,0)"><g transform="translate(-30.3046875,-22.5)"><text><tspan xml:space="preserve" dy="1em" x="1">Apache, 1</tspan><tspan xml:space="preserve" dy="1em" x="1">Spark, 1</tspan><tspan xml:space="preserve" dy="1em" x="1">is, 1</tspan></text></g></g></g><g class="node type-S" transform="translate(463.9765625,281.5)"><rect rx="5" ry="5" x="-34.765625" y="-32.5" width="69.53125" height="65"/><g class="label" transform="translate(0,0)"><g transform="translate(-24.765625,-22.5)"><text><tspan xml:space="preserve" dy="1em" x="1">Spark, 1</tspan><tspan xml:space="preserve" dy="1em" x="1">is, 1</tspan><tspan xml:space="preserve" dy="1em" x="1">fun, 1</tspan></text></g></g></g><g class="node type-S" transform="translate(463.9765625,25.5)"><rect rx="5" ry="5" x="-40.3046875" y="-18.5" width="80.609375" height="37"/><g class="label" transform="translate(0,0)"><g transform="translate(-30.3046875,-8.5)"><text><tspan xml:space="preserve" dy="1em" x="1">Apache, 1</tspan></text></g></g></g><g class="node type-S" transform="translate(631.4609375,25.5)"><rect rx="5" ry="5" x="-40.3046875" y="-25.5" width="80.609375" height="51"/><g class="label" transform="translate(0,0)"><g transform="translate(-30.3046875,-15.5)"><text><tspan xml:space="preserve" dy="1em" x="1">Apache, 1</tspan><tspan xml:space="preserve" dy="1em" x="1">Apache, 1</tspan></text></g></g></g><g class="node type-S" transform="translate(631.4609375,119.5)"><rect rx="5" ry="5" x="-26.734375" y="-18.5" width="53.46875" height="37"/><g class="label" transform="translate(0,0)"><g transform="translate(-16.734375,-8.5)"><text><tspan xml:space="preserve" dy="1em" x="1">fun, 1</tspan></text></g></g></g><g class="node type-S" transform="translate(631.4609375,234)"><rect rx="5" ry="5" x="-22.3203125" y="-25.5" width="44.640625" height="51"/><g class="label" transform="translate(0,0)"><g transform="translate(-12.3203125,-15.5)"><text><tspan xml:space="preserve" dy="1em" x="1">is, 1</tspan><tspan xml:space="preserve" dy="1em" x="1">is, 1</tspan></text></g></g></g><g class="node type-S" transform="translate(631.4609375,352)"><rect rx="5" ry="5" x="-34.765625" y="-25.5" width="69.53125" height="51"/><g class="label" transform="translate(0,0)"><g transform="translate(-24.765625,-15.5)"><text><tspan xml:space="preserve" dy="1em" x="1">Spark, 1</tspan><tspan xml:space="preserve" dy="1em" x="1">Spark, 1</tspan></text></g></g></g><g class="node type-S" transform="translate(844.6640625,25.5)"><rect rx="5" ry="5" x="-40.3046875" y="-18.5" width="80.609375" height="37"/><g class="label" transform="translate(0,0)"><g transform="translate(-30.3046875,-8.5)"><text><tspan xml:space="preserve" dy="1em" x="1">Apache, 2</tspan></text></g></g></g><g class="node type-S" transform="translate(844.6640625,119.5)"><rect rx="5" ry="5" x="-26.734375" y="-18.5" width="53.46875" height="37"/><g class="label" transform="translate(0,0)"><g transform="translate(-16.734375,-8.5)"><text><tspan xml:space="preserve" dy="1em" x="1">fun, 1</tspan></text></g></g></g><g class="node type-S" transform="translate(844.6640625,234)"><rect rx="5" ry="5" x="-22.3203125" y="-18.5" width="44.640625" height="37"/><g class="label" transform="translate(0,0)"><g transform="translate(-12.3203125,-8.5)"><text><tspan xml:space="preserve" dy="1em" x="1">is, 2</tspan></text></g></g></g><g class="node type-S" transform="translate(844.6640625,352)"><rect rx="5" ry="5" x="-34.765625" y="-18.5" width="69.53125" height="37"/><g class="label" transform="translate(0,0)"><g transform="translate(-24.765625,-8.5)"><text><tspan xml:space="preserve" dy="1em" x="1">Spark, 2</tspan></text></g></g></g><g class="node type-TK" transform="translate(1018.0078125,221)"><rect rx="5" ry="5" x="-40.3046875" y="-39.5" width="80.609375" height="79"/><g class="label" transform="translate(0,0)"><g transform="translate(-30.3046875,-29.5)"><text><tspan xml:space="preserve" dy="1em" x="1">Apache, 2</tspan><tspan xml:space="preserve" dy="1em" x="1">Spark, 2</tspan><tspan xml:space="preserve" dy="1em" x="1">is, 2</tspan><tspan xml:space="preserve" dy="1em" x="1">fun, 1</tspan><tspan xml:space="preserve" dy="1em" x="1"/></text></g></g></g></g></g></g></svg>